<svg width="16" height="16" viewBox="0 0 16 16" fill="none" xmlns="http://www.w3.org/2000/svg">
<path d="M4 14V12.6667C4 11.9594 4.28095 11.2811 4.78105 10.781C5.28115 10.281 5.95942 10 6.66667 10H9M5.33333 4.66667C5.33333 5.37391 5.61428 6.05219 6.11438 6.55228C6.61448 7.05238 7.29276 7.33333 8 7.33333C8.70724 7.33333 9.38552 7.05238 9.88562 6.55228C10.3857 6.05219 10.6667 5.37391 10.6667 4.66667C10.6667 3.95942 10.3857 3.28115 9.88562 2.78105C9.38552 2.28095 8.70724 2 8 2C7.29276 2 6.61448 2.28095 6.11438 2.78105C5.61428 3.28115 5.33333 3.95942 5.33333 4.66667ZM12.28 10.4067C12.41 10.2766 12.5644 10.1735 12.7342 10.1032C12.9041 10.0328 13.0861 9.99658 13.27 9.99658C13.4539 9.99658 13.6359 10.0328 13.8058 10.1032C13.9756 10.1735 14.13 10.2766 14.26 10.4067C14.39 10.5367 14.4931 10.691 14.5635 10.8609C14.6339 11.0307 14.6701 11.2128 14.6701 11.3967C14.6701 11.5805 14.6339 11.7626 14.5635 11.9324C14.4931 12.1023 14.39 12.2566 14.26 12.3867L12 14.6667H10V12.6667L12.28 10.4067Z" stroke="#646B72" stroke-linecap="round" stroke-linejoin="round"/>
</svg>
